<svg width="34" height="34" viewBox="0 0 34 34" fill="none" xmlns="http://www.w3.org/2000/svg">
<path d="M14.4332 20.5469H20.2504C20.6156 20.5469 20.9145 20.248 20.9145 19.8828C20.9145 19.5176 20.6156 19.2188 20.2504 19.2188H14.4332C14.068 19.2188 13.7691 19.5176 13.7691 19.8828C13.7691 20.248 14.068 20.5469 14.4332 20.5469ZM23.0195 21.9414H11.6641C11.2988 21.9414 11 22.2402 11 22.6055C11 22.9707 11.2988 23.2695 11.6641 23.2695H23.0195C23.3848 23.2695 23.6836 22.9707 23.6836 22.6055C23.6836 22.2402 23.3848 21.9414 23.0195 21.9414ZM23.0195 24.7305H11.6641C11.2988 24.7305 11 25.0293 11 25.3945C11 25.7598 11.2988 26.0586 11.6641 26.0586H23.0195C23.3848 26.0586 23.6836 25.7598 23.6836 25.3945C23.6836 25.0293 23.3848 24.7305 23.0195 24.7305ZM17.2223 10.1344C17.0297 10.3336 16.7707 10.4465 16.4918 10.4531H15.3629C15.0043 10.4465 14.7055 10.7254 14.6988 11.084C14.6922 11.2699 14.7719 11.4492 14.9047 11.5754L17.7402 14.2449C18.0059 14.4973 18.4309 14.484 18.6832 14.2184C18.9355 13.9527 18.9223 13.5277 18.6566 13.2754L16.9898 11.7016C17.4348 11.6086 17.8465 11.3828 18.1719 11.0641C18.4574 10.7852 18.6633 10.4398 18.7695 10.0547H19.3273C19.6926 10.0547 19.9914 9.75586 19.9914 9.39062C19.9914 9.02539 19.6926 8.72656 19.3273 8.72656H18.7695C18.7297 8.59375 18.6832 8.4543 18.6234 8.32812H19.3207C19.6859 8.32812 19.9848 8.0293 19.9848 7.66406C19.9848 7.29883 19.6859 7 19.3207 7H15.3695C15.0043 7 14.7055 7.29883 14.7055 7.66406C14.7055 8.0293 15.0043 8.32812 15.3695 8.32812H16.4984C16.8172 8.32812 17.1027 8.52734 17.2887 8.72656H15.3629C14.9977 8.72656 14.6988 9.02539 14.6988 9.39062C14.6988 9.75586 14.9977 10.0547 15.3629 10.0547H17.282C17.2688 10.0547 17.2488 10.1145 17.2223 10.1344Z" fill="#45464E"/>
<path d="M22.3379 1.03019L22.3377 1.02999L22.3302 1.03672L22.3076 1.05677L22.285 1.07682L22.2849 1.07668L22.2788 1.08261L20.8163 2.49825L19.3545 1.07713C19.3543 1.07699 19.3542 1.07685 19.354 1.0767C19.0002 0.728741 18.4036 0.715215 18.0267 1.02503L18.0266 1.02492L18.0209 1.03004L17.9757 1.07014L17.9756 1.07L17.9695 1.07593L16.5067 2.49185L15.0452 1.07713C15.0449 1.07692 15.0447 1.07671 15.0445 1.0765C14.6907 0.728736 14.0942 0.715276 13.7174 1.02503L13.7173 1.02492L13.7116 1.03004L13.6664 1.07014L13.6663 1.07L13.6602 1.07593L12.1974 2.49185L10.7352 1.07647C10.3813 0.728735 9.78493 0.715284 9.40813 1.02503L9.40803 1.02492L9.40228 1.03004L9.35715 1.07014L9.35703 1.07L9.35091 1.07593L7.8878 2.49217L6.41831 1.07641C6.15941 0.82149 5.75585 0.732409 5.40029 0.857138C5.04699 0.981075 4.79136 1.29671 4.80022 1.66997V32.3293C4.79132 32.8202 5.22396 33.1908 5.71765 33.1996C5.98706 33.2074 6.24383 33.1084 6.42755 32.9206L7.88842 31.5004L9.34968 32.9149C9.34993 32.9151 9.35018 32.9154 9.35043 32.9156C9.70507 33.2641 10.2929 33.2754 10.6755 32.9685L10.6757 32.9687L10.6833 32.962L10.7284 32.9219L10.7285 32.922L10.7346 32.9161L12.1974 31.5002L13.659 32.9149C13.6592 32.9151 13.6594 32.9153 13.6596 32.9155C14.0134 33.2633 14.6099 33.2767 14.9867 32.967L14.9868 32.9671L14.9926 32.962L15.0151 32.9419L15.0377 32.9219L15.0378 32.922L15.0439 32.9161L16.5067 31.5002L17.9683 32.9149C17.9685 32.9151 17.9687 32.9153 17.9689 32.9155C18.3227 33.2633 18.9192 33.2767 19.296 32.967L19.2961 32.9671L19.3019 32.962L19.3244 32.9419L19.347 32.9219L19.3471 32.922L19.3532 32.9161L20.816 31.5002L22.2776 32.9149C22.2777 32.9151 22.2779 32.9152 22.2781 32.9154C22.632 33.2633 23.2285 33.2768 23.6053 32.967L23.6054 32.9671L23.6112 32.962L23.6337 32.9419L23.6563 32.9219L23.6564 32.922L23.6625 32.9161L25.125 31.5005L26.5795 32.9151C26.5797 32.9152 26.5798 32.9154 26.58 32.9155C26.7655 33.0975 27.0213 33.1862 27.2762 33.1862C27.3861 33.1862 27.4936 33.1699 27.6025 33.1266C27.9535 33.0016 28.207 32.6871 28.1982 32.3154V1.66198C28.2253 1.29248 27.9595 0.978651 27.6131 0.857138C27.2593 0.733014 26.8551 0.813552 26.5874 1.07662C26.5872 1.07677 26.5871 1.07692 26.5869 1.07707L25.125 2.49825L23.6638 1.08381C23.6635 1.08358 23.6633 1.08335 23.663 1.08312C23.3084 0.734634 22.7206 0.723273 22.3379 1.03019ZM20.1851 29.5969L20.185 29.5968L20.1793 29.6019L20.1567 29.622L20.1342 29.642L20.134 29.6419L20.1279 29.6478L18.6651 31.0638L17.2036 29.649C17.2033 29.6488 17.2031 29.6486 17.2029 29.6484C16.849 29.3006 16.2526 29.2872 15.8758 29.5969L15.8757 29.5968L15.87 29.6019L15.8474 29.622L15.8249 29.642L15.8247 29.6419L15.8186 29.6478L14.3558 31.0638L12.8943 29.649C12.8941 29.6488 12.8938 29.6486 12.8936 29.6484C12.5398 29.3006 11.9433 29.2872 11.5665 29.5969L11.5664 29.5968L11.5607 29.6019L11.5156 29.642L11.5154 29.6419L11.5093 29.6478L10.0468 31.0635L8.58479 29.6422C8.58467 29.642 8.58454 29.6419 8.58441 29.6418C8.40187 29.4627 8.14767 29.3643 7.88812 29.3643C7.62843 29.3643 7.38044 29.4629 7.20466 29.644L6.70433 30.1362V3.86273L7.19707 4.34796C7.37285 4.52907 7.62088 4.62771 7.8806 4.62771C8.14014 4.62771 8.39435 4.52929 8.57689 4.35021C8.57702 4.35009 8.57715 4.34996 8.57728 4.34983L10.0393 2.92854L11.5012 4.34363C11.8551 4.69137 12.4515 4.70482 12.8283 4.39507L12.8284 4.39518L12.8342 4.39007L12.8567 4.37002L12.8793 4.34997L12.8794 4.3501L12.8855 4.34417L14.3483 2.92825L15.8099 4.34297C15.8101 4.34319 15.8103 4.3434 15.8105 4.34362C16.1644 4.69137 16.7608 4.70482 17.1376 4.39507L17.1377 4.39518L17.1435 4.39007L17.1886 4.34996L17.1887 4.3501L17.1948 4.34417L18.6576 2.92825L20.1192 4.34297C20.1194 4.34319 20.1196 4.3434 20.1198 4.34362C20.4737 4.69137 21.0701 4.70482 21.4469 4.39507L21.447 4.39518L21.4527 4.39007L21.4753 4.37001L21.4979 4.34997L21.498 4.3501L21.5041 4.34417L22.9666 2.92854L24.4286 4.34983C24.4288 4.35 24.429 4.35016 24.4291 4.35032C24.6117 4.52933 24.8658 4.62771 25.1253 4.62771C25.385 4.62771 25.633 4.52909 25.8088 4.34802L26.3091 3.85576V30.1293L25.8164 29.644C25.6406 29.4629 25.3925 29.3643 25.1328 29.3643C24.8733 29.3643 24.6191 29.4627 24.4365 29.6418C24.4364 29.6419 24.4363 29.6421 24.4362 29.6422L22.9741 31.0635L21.5129 29.649C21.5127 29.6489 21.5125 29.6487 21.5123 29.6485C21.1585 29.3006 20.562 29.2872 20.1851 29.5969Z" fill="#45464E" stroke="#45464E" stroke-width="0.4"/>
</svg>
